<svg width="399" height="651" viewBox="0 0 399 651" fill="none" xmlns="http://www.w3.org/2000/svg">
<path fill-rule="evenodd" clip-rule="evenodd" d="M316.598 248.241L317.84 250.553L319.127 252.874L320.457 255.206L321.833 257.551L323.253 259.91L324.718 262.286L326.228 264.681L327.784 267.096L329.385 269.533L331.031 271.994L332.724 274.482L334.462 276.997L336.246 279.542L338.076 282.119L339.951 284.729L341.87 287.376L343.833 290.06L345.838 292.784L347.884 295.549L349.968 298.358L352.088 301.212L354.241 304.112L356.421 307.061L358.624 310.059L360.844 313.108L363.074 316.208L365.311 319.36L367.548 322.564L369.779 325.821L371.998 329.13L374.197 332.491L376.368 335.903L378.501 339.365L380.586 342.874L382.613 346.428L384.57 350.025L386.446 353.66L388.229 357.33L389.905 361.03L391.463 364.755L392.889 368.499L394.171 372.255L395.297 376.016L396.255 379.777L397.033 383.527L397.62 387.26L398.006 390.967L398.181 394.639L398.137 398.267L397.866 401.842L397.362 405.355L396.619 408.797L395.633 412.158L394.401 415.43L392.922 418.605L391.195 421.673L389.221 424.627L387.003 427.46L384.545 430.165L381.851 432.736L378.928 435.167L375.785 437.454L372.429 439.592L368.872 441.58L365.124 443.415L361.199 445.096L357.108 446.623L352.867 447.996L348.49 449.219L343.994 450.294L339.394 451.226L334.707 452.019L329.95 452.68L325.141 453.216L320.297 453.635L315.435 453.947L310.572 454.161L305.727 454.288L300.914 454.339L296.152 454.327L291.454 454.265L286.837 454.166L282.315 454.043L277.901 453.911L273.608 453.783L269.446 453.675L265.428 453.601L261.561 453.575L257.855 453.611L254.316 453.724L250.95 453.926L247.761 454.232L244.753 454.653L241.927 455.201L239.284 455.889L236.824 456.725L234.545 457.72L232.443 458.881L230.514 460.218L228.754 461.734L227.156 463.437L225.712 465.33L224.415 467.416L223.255 469.697L222.222 472.173L221.307 474.843L220.498 477.705L219.784 480.757L219.153 483.994L218.593 487.41L218.091 490.999L217.636 494.754L217.214 498.667L216.814 502.728L216.424 506.926L216.032 511.253L215.627 515.696L215.197 520.244L214.733 524.886L214.224 529.608L213.662 534.4L213.038 539.248L212.344 544.141L211.574 549.069L210.721 554.018L209.78 558.98L208.746 563.94L207.614 568.888L206.378 573.81L205.035 578.694L203.58 583.524L202.01 588.286L200.322 592.966L198.513 597.548L196.581 602.018L194.525 606.361L192.345 610.562L190.041 614.607L187.613 618.484L185.064 622.179L182.396 625.681L179.611 628.978L176.715 632.061L173.711 634.92L170.603 637.548L167.399 639.937L164.103 642.083L160.722 643.979L157.262 645.623L153.732 647.013L150.138 648.146L146.487 649.024L142.788 649.647L139.048 650.017L135.274 650.138L131.476 650.013L127.659 649.648L123.832 649.049L120.002 648.223L116.176 647.178L112.361 645.923L108.563 644.466L104.789 642.817L101.043 640.988L97.3323 638.99L93.6607 636.833L90.0329 634.529L86.4527 632.092L82.9238 629.533L79.449 626.866L76.0308 624.103L72.6711 621.257L69.3714 618.341L66.1325 615.368L62.9549 612.351L59.8385 609.303L56.7826 606.236L53.7863 603.163L50.8479 600.096L47.9655 597.046L45.1367 594.025L42.3587 591.044L39.6283 588.112L36.9419 585.24L34.2958 582.438L31.6857 579.713L29.1073 577.075L26.5559 574.53L24.0267 572.086L21.5147 569.748L19.0148 567.522L16.5219 565.413L14.0307 563.425L11.5359 561.56L9.03245 559.821L6.51521 558.21L3.97918 556.727L1.41955 555.373L-1.16828 554.145L-3.78866 553.044L-6.44567 552.065L-9.14304 551.207L-11.8842 550.464L-14.672 549.832L-17.5091 549.306L-20.3974 548.879L-23.3387 548.544L-26.3338 548.293L-29.3833 548.119L-32.4871 548.013L-35.6446 547.965L-38.8544 547.966L-42.1149 548.006L-45.4234 548.074L-48.7772 548.161L-52.1726 548.255L-55.6057 548.347L-59.0718 548.425L-62.5662 548.479L-66.0835 548.5L-69.6181 548.477L-73.1645 548.402L-76.7168 548.267L-80.2692 548.064L-83.8164 547.786L-87.3532 547.429L-90.8746 546.988L-94.3766 546.46L-97.8552 545.843L-101.307 545.135L-104.729 544.336L-108.116 543.444L-111.464 542.456L-114.769 541.371L-118.026 540.186L-121.227 538.897L-124.368 537.504L-127.443 536.003L-130.444 534.391L-133.366 532.666L-136.2 530.825L-138.94 528.867L-141.58 526.791L-144.111 524.594L-146.528 522.276L-148.822 519.837L-150.989 517.277L-153.021 514.596L-154.913 511.796L-156.66 508.879L-158.256 505.847L-159.698 502.704L-160.982 499.454L-162.105 496.1L-163.064 492.647L-163.859 489.102L-164.49 485.471L-164.955 481.759L-165.258 477.975L-165.399 474.124L-165.383 470.217L-165.212 466.259L-164.893 462.261L-164.43 458.23L-163.831 454.175L-163.104 450.105L-162.256 446.029L-161.298 441.955L-160.238 437.893L-159.088 433.85L-157.859 429.834L-156.563 425.854L-155.212 421.916L-153.819 418.029L-152.397 414.197L-150.959 410.428L-149.518 406.726L-148.089 403.097L-146.685 399.545L-145.318 396.073L-144.003 392.684L-142.753 389.38L-141.579 386.162L-140.493 383.032L-139.509 379.989L-138.635 377.034L-137.883 374.163L-137.262 371.376L-136.781 368.67L-136.447 366.042L-136.268 363.488L-136.25 361.004L-136.397 358.584L-136.713 356.225L-137.202 353.92L-137.866 351.663L-138.704 349.449L-139.718 347.271L-140.906 345.123L-142.266 342.997L-143.795 340.888L-145.489 338.789L-147.343 336.692L-149.351 334.592L-151.508 332.483L-153.806 330.357L-156.237 328.209L-158.792 326.033L-161.464 323.825L-164.243 321.578L-167.12 319.288L-170.083 316.952L-173.125 314.564L-176.233 312.121L-179.399 309.621L-182.611 307.06L-185.86 304.437L-189.136 301.748L-192.427 298.993L-195.725 296.171L-199.02 293.28L-202.301 290.321L-205.559 287.293L-208.786 284.197L-211.971 281.034L-215.106 277.804L-218.18 274.509L-221.186 271.15L-224.112 267.731L-226.95 264.253L-229.69 260.719L-232.324 257.134L-234.845 253.499L-237.247 249.818L-239.526 246.095L-241.678 242.333L-243.701 238.536L-245.594 234.707L-247.357 230.85L-248.988 226.966L-250.491 223.06L-251.866 219.135L-253.115 215.191L-254.242 211.233L-255.25 207.261L-256.142 203.278L-256.922 199.285L-257.596 195.284L-258.166 191.276L-258.637 187.262L-259.014 183.242L-259.3 179.218L-259.501 175.19L-259.618 171.157L-259.657 167.121L-259.621 163.082L-259.512 159.04L-259.333 154.996L-259.087 150.949L-258.774 146.9L-258.398 142.849L-257.957 138.798L-257.454 134.747L-256.887 130.697L-256.257 126.65L-255.563 122.606L-254.804 118.568L-253.977 114.537L-253.082 110.516L-252.115 106.508L-251.075 102.515L-249.959 98.5413L-248.763 94.5895L-247.485 90.6637L-246.121 86.7681L-244.668 82.9071L-243.123 79.0853L-241.482 75.3078L-239.742 71.5796L-237.9 67.9061L-235.953 64.2928L-233.898 60.7453L-231.732 57.2696L-229.454 53.8713L-227.061 50.5565L-224.552 47.331L-221.925 44.2006L-219.18 41.1713L-216.315 38.2486L-213.331 35.4382L-210.228 32.7453L-207.007 30.1753L-203.669 27.7329L-200.216 25.4229L-196.649 23.2495L-192.972 21.2168L-189.188 19.3284L-185.299 17.5876L-181.31 15.9974L-177.224 14.5601L-173.046 13.2778L-168.781 12.1523L-164.434 11.1846L-160.01 10.3757L-155.514 9.72591L-150.953 9.23516L-146.332 8.90303L-141.657 8.72869L-136.935 8.71091L-132.17 8.84811L-127.371 9.13833L-122.541 9.57929L-117.689 10.1683L-112.82 10.9025L-107.94 11.7786L-103.055 12.793L-98.1712 13.9419L-93.2942 15.2212L-88.4297 16.6265L-83.5834 18.1529L-78.7609 19.7955L-73.9675 21.5487L-69.2087 23.4067L-64.4897 25.3629L-59.8158 27.4104L-55.1923 29.5416L-50.6245 31.7479L-46.1171 34.0209L-41.6746 36.3521L-37.301 38.7331L-33.0002 41.155L-28.7754 43.6092L-24.6296 46.0873L-20.5652 48.5808L-16.5843 51.0816L-12.6886 53.5814L-8.87943 56.0721L-5.15798 58.5454L-1.52504 60.9928L2.01893 63.406L5.47365 65.7762L8.83925 68.095L12.1161 70.3534L15.3048 72.5427L18.4065 74.6542L21.4224 76.6788L24.3542 78.6079L27.204 80.4327L29.974 82.1446L32.6671 83.7354L35.2862 85.1968L37.8348 86.5212L40.3166 87.7011L42.7358 88.7296L45.0968 89.6003L47.4044 90.3071L49.6635 90.8449L51.8796 91.209L54.0581 91.3955L56.2049 91.4013L58.3258 91.2238L60.427 90.8617L62.5148 90.3142L64.5954 89.5815L66.6751 88.6647L68.7603 87.5658L70.8572 86.2878L72.972 84.8344L75.1108 83.2106L77.2795 81.422L79.4835 79.4751L81.7285 77.3775L84.0193 75.1373L86.3608 72.7637L88.7573 70.2666L91.2127 67.6565L93.7305 64.9446L96.3136 62.1429L98.9647 59.2637L101.686 56.3199L104.478 53.3249L107.342 50.2923L110.279 47.2362L113.288 44.1706L116.368 41.11L119.519 38.0686L122.737 35.0608L126.02 32.1009L129.365 29.2029L132.769 26.3806L136.228 23.6474L139.736 21.0165L143.289 18.5004L146.88 16.111L150.506 13.8599L154.158 11.7577L157.831 9.81443L161.517 8.03916L165.211 6.44026L168.905 5.02513L172.592 3.80025L176.265 2.77113L179.916 1.94228L183.539 1.3172L187.127 0.898328L190.673 0.687075L194.171 0.683828L197.615 0.887914L200.999 1.29767L204.318 1.9104L207.566 2.72248L210.74 3.72937L213.836 4.92563L216.85 6.30505L219.779 7.86061L222.622 9.58469L225.376 11.469L228.041 13.5049L230.616 15.683L233.101 17.9941L235.497 20.4283L237.805 22.9761L240.026 25.6278L242.161 28.3739L244.214 31.2054L246.184 34.1138L248.075 37.0911L249.889 40.13L251.627 43.2232L253.293 46.3633L254.889 49.5433L256.418 52.7561L257.883 55.9952L259.289 59.2539L260.638 62.526L261.935 65.8055L263.182 69.0867L264.385 72.3647L265.547 75.6347L266.671 78.8925L267.761 82.1345L268.821 85.3577L269.852 88.5592L270.858 91.7371L271.841 94.8895L272.804 98.0153L273.749 101.114L274.677 104.184L275.589 107.226L276.487 110.24L277.372 113.227L278.243 116.187L279.102 119.121L279.949 122.03L280.783 124.915L281.605 127.776L282.414 130.617L283.21 133.436L283.993 136.236L284.762 139.018L285.517 141.782L286.257 144.531L286.982 147.263L287.692 149.981L288.387 152.685L289.067 155.375L289.731 158.052L290.381 160.716L291.016 163.368L291.637 166.007L292.245 168.633L292.84 171.247L293.425 173.848L293.999 176.436L294.565 179.011L295.124 181.572L295.679 184.12L296.23 186.654L296.78 189.173L297.331 191.678L297.885 194.168L298.445 196.643L299.012 199.104L299.59 201.549L300.181 203.98L300.787 206.396L301.41 208.798L302.054 211.186L302.719 213.56L303.409 215.922L304.125 218.272L304.87 220.61L305.645 222.939L306.453 225.258L307.294 227.569L308.171 229.874L309.084 232.173L310.036 234.468L311.026 236.761L312.057 239.052L313.129 241.344L314.242 243.639L315.398 245.937L316.598 248.241Z" fill="#CFC69F"/>
</svg>
