<svg width="421" height="503" viewBox="0 0 421 503" fill="none" xmlns="http://www.w3.org/2000/svg">
<path fill-rule="evenodd" clip-rule="evenodd" d="M452.007 232.508L451.139 235.373L450.419 238.219L449.846 241.053L449.42 243.883L449.138 246.716L448.996 249.558L448.989 252.416L449.112 255.296L449.358 258.205L449.717 261.147L450.18 264.127L450.736 267.148L451.371 270.215L452.072 273.328L452.824 276.489L453.612 279.699L454.419 282.956L455.228 286.259L456.025 289.605L456.791 292.991L457.511 296.411L458.17 299.861L458.751 303.336L459.24 306.827L459.625 310.328L459.893 313.831L460.034 317.329L460.037 320.814L459.895 324.276L459.602 327.709L459.154 331.105L458.546 334.456L457.778 337.755L456.848 340.995L455.757 344.17L454.504 347.273L453.093 350.298L451.526 353.24L449.807 356.095L447.942 358.857L445.936 361.525L443.796 364.095L441.528 366.566L439.142 368.935L436.645 371.205L434.047 373.373L431.357 375.443L428.584 377.417L425.739 379.296L422.831 381.086L419.871 382.791L416.868 384.415L413.833 385.966L410.775 387.449L407.704 388.872L404.628 390.242L401.556 391.568L398.496 392.857L395.455 394.12L392.441 395.363L389.458 396.598L386.513 397.832L383.61 399.076L380.753 400.338L377.946 401.626L375.189 402.949L372.485 404.316L369.834 405.735L367.236 407.211L364.69 408.753L362.195 410.365L359.748 412.054L357.345 413.823L354.984 415.677L352.66 417.618L350.368 419.648L348.103 421.768L345.859 423.979L343.631 426.279L341.411 428.666L339.195 431.139L336.975 433.694L334.745 436.326L332.498 439.029L330.227 441.798L327.927 444.624L325.59 447.5L323.211 450.415L320.783 453.36L318.302 456.323L315.762 459.293L313.16 462.259L310.491 465.208L307.753 468.127L304.943 471.004L302.058 473.826L299.099 476.58L296.065 479.254L292.956 481.837L289.773 484.316L286.518 486.68L283.194 488.918L279.803 491.02L276.348 492.977L272.835 494.779L269.267 496.42L265.65 497.891L261.989 499.187L258.29 500.3L254.558 501.227L250.801 501.964L247.025 502.506L243.236 502.852L239.442 503L235.649 502.949L231.864 502.7L228.094 502.253L224.345 501.61L220.625 500.774L216.939 499.748L213.294 498.535L209.696 497.141L206.15 495.571L202.662 493.83L199.235 491.925L195.876 489.863L192.589 487.651L189.375 485.298L186.24 482.81L183.186 480.196L180.216 477.465L177.33 474.625L174.532 471.685L171.821 468.655L169.198 465.542L166.664 462.356L164.219 459.106L161.861 455.799L159.59 452.445L157.404 449.052L155.302 445.627L153.282 442.178L151.341 438.712L149.477 435.237L147.687 431.759L145.969 428.284L144.318 424.819L142.733 421.367L141.209 417.935L139.744 414.527L138.333 411.147L136.974 407.799L135.663 404.485L134.396 401.209L133.17 397.974L131.982 394.781L130.828 391.632L129.705 388.528L128.611 385.471L127.54 382.461L126.491 379.501L125.458 376.592L124.438 373.735L123.426 370.931L122.417 368.182L121.407 365.488L120.392 362.852L119.365 360.274L118.321 357.755L117.256 355.296L116.164 352.896L115.039 350.556L113.875 348.277L112.667 346.057L111.41 343.897L110.097 341.795L108.723 339.751L107.282 337.762L105.769 335.829L104.178 333.947L102.503 332.117L100.741 330.333L98.8862 328.593L96.9363 326.893L94.8884 325.228L92.7408 323.593L90.4927 321.983L88.1439 320.391L85.6953 318.812L83.1488 317.239L80.507 315.664L77.7738 314.083L74.9538 312.486L72.0526 310.868L69.0768 309.221L66.0338 307.539L62.932 305.815L59.7805 304.042L56.5893 302.215L53.3691 300.327L50.1311 298.374L46.8875 296.35L43.6505 294.252L40.4332 292.075L37.2487 289.817L34.1107 287.475L31.0329 285.048L28.029 282.534L25.1127 279.933L22.2978 277.246L19.5976 274.474L17.0253 271.619L14.5934 268.683L12.3142 265.671L10.1991 262.586L8.25905 259.432L6.50393 256.217L4.94291 252.944L3.58417 249.621L2.43485 246.255L1.50099 242.853L0.787494 239.422L0.298061 235.971L0.0351614 232.508L0 229.04L0.192501 225.576L0.611297 222.125L1.25373 218.694L2.11588 215.291L3.19254 211.923L4.47731 208.599L5.96262 205.324L7.63974 202.104L9.49884 198.947L11.529 195.855L13.7183 192.834L16.054 189.888L18.5223 187.018L21.109 184.227L23.7993 181.515L26.5777 178.884L29.4288 176.331L32.3369 173.856L35.2863 171.456L38.2614 169.127L41.2471 166.866L44.2288 164.667L47.1924 162.525L50.1248 160.434L53.0136 158.388L55.8479 156.379L58.6177 154.402L61.3146 152.448L63.9317 150.51L66.4635 148.583L68.9055 146.658L71.2543 144.73L73.5071 142.791L75.6623 140.836L77.7192 138.858L79.6778 136.85L81.5395 134.809L83.306 132.728L84.9804 130.603L86.5664 128.431L88.0685 126.208L89.4922 123.931L90.8434 121.598L92.1288 119.209L93.3558 116.763L94.5321 114.26L95.666 111.702L96.7661 109.091L97.8414 106.428L98.9009 103.719L99.9539 100.967L101.01 98.1782L102.078 95.3577L103.167 92.5123L104.286 89.6493L105.443 86.7765L106.648 83.9022L107.907 81.0353L109.229 78.185L110.619 75.3607L112.084 72.5722L113.63 69.8294L115.26 67.1423L116.98 64.5206L118.792 61.9743L120.699 59.513L122.703 57.1459L124.803 54.8819L127.001 52.7294L129.295 50.6963L131.684 48.7899L134.165 47.0167L136.735 45.3823L139.39 43.8917L142.126 42.5489L144.938 41.3569L147.82 40.3177L150.766 39.4324L153.77 38.7009L156.825 38.1222L159.924 37.694L163.06 37.4132L166.225 37.2754L169.411 37.275L172.613 37.4052L175.821 37.6577L179.029 38.0235L182.23 38.4923L185.417 39.0532L188.584 39.6943L191.727 40.4032L194.839 41.167L197.917 41.9725L200.957 42.8063L203.957 43.6549L206.913 44.5048L209.827 45.3431L212.696 46.1568L215.521 46.9338L218.304 47.6626L221.045 48.3325L223.749 48.9337L226.417 49.4577L229.054 49.897L231.664 50.2453L234.251 50.4969L236.82 50.6469L239.377 50.691L241.926 50.6257L244.474 50.4485L247.025 50.1573L249.586 49.7511L252.163 49.2296L254.761 48.5932L257.387 47.8432L260.046 46.9818L262.743 46.0118L265.484 44.9367L268.274 43.7609L271.118 42.4895L274.021 41.128L276.986 39.6828L280.018 38.1607L283.121 36.5692L286.296 34.9161L289.546 33.2098L292.875 31.4589L296.283 29.6726L299.77 27.8601L303.339 26.0309L306.989 24.1948L310.719 22.3615L314.529 20.5409L318.416 18.7427L322.38 16.9768L326.417 15.2526L330.525 13.5798L334.7 11.9674L338.938 10.4245L343.236 8.95963L347.589 7.58102L351.993 6.29652L356.441 5.11352L360.929 4.03895L365.452 3.0792L370.003 2.24017L374.577 1.5272L379.168 0.945049L383.77 0.497927L388.377 0.18945L392.983 0.0226549L397.583 0L402.17 0.123371L406.739 0.394095L411.284 0.812953L415.801 1.3802L420.283 2.09562L424.727 2.9588L429.126 3.96952L433.476 5.1277L437.769 6.43336L442 7.88652L446.162 9.48718L450.25 11.2352L454.255 13.1304L458.172 15.1723L461.993 17.3602L465.712 19.6933L469.321 22.1703L472.813 24.79L476.181 27.5506L479.418 30.45L482.518 33.4861L485.472 36.6563L488.274 39.9578L490.917 43.3875L493.393 46.9422L495.696 50.6184L497.818 54.4124L499.752 58.3198L501.493 62.3359L503.035 66.4549L504.373 70.6706L505.504 74.976L506.425 79.3637L507.136 83.8258L507.634 88.3539L507.922 92.9391L508 97.5724L507.871 102.245L507.539 106.946L507.01 111.667L506.288 116.398L505.38 121.13L504.296 125.854L503.043 130.559L501.632 135.238L500.073 139.882L498.378 144.482L496.559 149.032L494.628 153.524L492.6 157.951L490.488 162.309L488.307 166.591L486.07 170.794L483.793 174.914L481.49 178.948L479.176 182.894L476.866 186.751L474.574 190.519L472.315 194.197L470.102 197.788L467.948 201.293L465.865 204.714L463.866 208.055L461.962 211.321L460.162 214.515L458.476 217.643L456.913 220.711L455.479 223.724L454.18 226.691L453.022 229.616L452.007 232.508Z" fill="#CFC69F"/>
</svg>
