<svg width="506" height="579" viewBox="0 0 506 579" fill="none" xmlns="http://www.w3.org/2000/svg">
<path fill-rule="evenodd" clip-rule="evenodd" d="M470.733 261.304L468.425 264.528L466.109 267.689L463.79 270.789L461.474 273.828L459.166 276.808L456.871 279.732L454.593 282.601L452.337 285.417L450.106 288.182L447.901 290.899L445.725 293.569L443.578 296.196L441.46 298.781L439.371 301.326L437.31 303.832L435.276 306.303L433.268 308.738L431.282 311.14L429.317 313.509L427.371 315.847L425.442 318.154L423.527 320.431L421.624 322.679L419.73 324.898L417.845 327.089L415.967 329.251L414.095 331.387L412.227 333.495L410.365 335.578L408.508 337.636L406.656 339.669L404.813 341.681L402.979 343.673L401.157 345.647L399.349 347.605L397.557 349.551L395.785 351.487L394.033 353.415L392.304 355.339L390.6 357.263L388.923 359.189L387.275 361.121L385.656 363.062L384.069 365.017L382.514 366.988L380.992 368.979L379.504 370.995L378.051 373.038L376.632 375.112L375.246 377.221L373.895 379.369L372.577 381.559L371.29 383.793L370.034 386.075L368.807 388.408L367.606 390.795L366.43 393.237L365.276 395.737L364.141 398.297L363.022 400.918L361.916 403.602L360.819 406.349L359.727 409.161L358.636 412.036L357.543 414.975L356.443 417.977L355.332 421.042L354.204 424.168L353.057 427.353L351.885 430.596L350.683 433.893L349.447 437.243L348.174 440.642L346.857 444.086L345.493 447.573L344.079 451.097L342.609 454.655L341.08 458.242L339.488 461.853L337.83 465.484L336.103 469.13L334.304 472.784L332.429 476.443L330.477 480.101L328.446 483.751L326.334 487.391L324.139 491.015L321.861 494.618L319.498 498.197L317.051 501.747L314.519 505.264L311.902 508.746L309.199 512.187L306.412 515.585L303.541 518.935L300.587 522.236L297.549 525.483L294.43 528.673L291.229 531.802L287.949 534.868L284.589 537.867L281.152 540.795L277.639 543.649L274.052 546.424L270.391 549.116L266.66 551.721L262.859 554.234L258.991 556.651L255.058 558.964L251.063 561.169L247.009 563.262L242.898 565.236L238.735 567.088L234.522 568.815L230.264 570.412L225.963 571.876L221.624 573.207L217.251 574.401L212.848 575.457L208.42 576.375L203.969 577.155L199.499 577.796L195.016 578.299L190.522 578.667L186.022 578.899L181.518 579L177.014 578.971L172.513 578.815L168.018 578.536L163.531 578.138L159.055 577.624L154.592 577L150.143 576.269L145.711 575.435L141.295 574.505L136.898 573.483L132.52 572.374L128.161 571.182L123.821 569.913L119.5 568.572L115.198 567.162L110.915 565.689L106.649 564.157L102.4 562.569L98.1665 560.93L93.948 559.242L89.7431 557.51L85.5509 555.734L81.3701 553.919L77.1997 552.065L73.0388 550.174L68.8867 548.247L64.7425 546.284L60.6058 544.287L56.4765 542.254L52.3545 540.184L48.2401 538.078L44.134 535.933L40.037 533.748L35.9507 531.521L31.877 529.248L27.8185 526.926L23.7785 524.553L19.7609 522.123L15.7701 519.632L11.8114 517.076L7.89032 514.451L4.01311 511.75L0.186459 508.971L-3.58249 506.108L-7.2862 503.158L-10.9168 500.115L-14.4663 496.978L-17.9264 493.743L-21.2887 490.407L-24.5449 486.968L-27.6866 483.425L-30.7059 479.777L-33.5949 476.025L-36.3461 472.169L-38.9526 468.21L-41.4079 464.15L-43.7063 459.992L-45.8427 455.741L-47.813 451.4L-49.6136 446.974L-51.2416 442.468L-52.6949 437.889L-53.9718 433.241L-55.0716 428.532L-55.9942 423.769L-56.7403 418.957L-57.3113 414.104L-57.7094 409.218L-57.9377 404.306L-58 399.374L-57.9009 394.432L-57.6456 389.485L-57.2404 384.541L-56.6919 379.607L-56.0078 374.69L-55.196 369.797L-54.2654 364.934L-53.2253 360.106L-52.0853 355.32L-50.8559 350.58L-49.5475 345.891L-48.1711 341.257L-46.7379 336.682L-45.2592 332.168L-43.7465 327.718L-42.2114 323.333L-40.6652 319.016L-39.1192 314.766L-37.5846 310.583L-36.0722 306.467L-34.5924 302.416L-33.1552 298.429L-31.7703 294.504L-30.4465 290.636L-29.1921 286.824L-28.0147 283.063L-26.9212 279.348L-25.9175 275.676L-25.0087 272.041L-24.1993 268.437L-23.4923 264.86L-22.8901 261.304L-22.3941 257.763L-22.0045 254.232L-21.7207 250.704L-21.5409 247.174L-21.4624 243.637L-21.4814 240.087L-21.5933 236.52L-21.7922 232.93L-22.0709 229.314L-22.4208 225.668L-22.8321 221.989L-23.294 218.274L-23.7946 214.523L-24.3213 210.734L-24.8608 206.907L-25.399 203.044L-25.9218 199.145L-26.4144 195.214L-26.8621 191.254L-27.2505 187.268L-27.5648 183.263L-27.7911 179.244L-27.9158 175.217L-27.9258 171.189L-27.8089 167.168L-27.554 163.163L-27.1507 159.18L-26.5899 155.23L-25.864 151.321L-24.9664 147.461L-23.8922 143.66L-22.6381 139.925L-21.2023 136.265L-19.5841 132.688L-17.7841 129.2L-15.8037 125.81L-13.6455 122.522L-11.3129 119.345L-8.81011 116.283L-6.14256 113.341L-3.31633 110.523L-0.338367 107.834L2.78365 105.275L6.04134 102.85L9.4257 100.559L12.9272 98.4023L16.5357 96.3804L20.2409 94.4916L24.032 92.7338L27.898 91.1042L31.8277 89.599L35.8099 88.2135L39.8335 86.9426L43.8872 85.7799L47.9603 84.7188L52.042 83.7519L56.1219 82.8709L60.1901 82.0673L64.2372 81.332L68.2541 80.6555L72.2327 80.028L76.1651 79.4392L80.0445 78.879L83.8645 78.3368L87.6196 77.8023L91.3053 77.2651L94.9175 76.7149L98.4534 76.1417L101.911 75.5358L105.288 74.8879L108.585 74.1892L111.801 73.4314L114.939 72.6068L118 71.7083L120.985 70.7297L123.9 69.6655L126.747 68.5111L129.532 67.2628L132.258 65.9177L134.933 64.4741L137.561 62.9309L140.15 61.2883L142.705 59.5474L145.234 57.7105L147.744 55.7807L150.242 53.7627L152.735 51.6619L155.23 49.4851L157.735 47.2399L160.256 44.935L162.801 42.5797L165.374 40.1845L167.983 37.7601L170.631 35.3181L173.325 32.8706L176.068 30.4297L178.863 28.0082L181.714 25.6187L184.622 23.2739L187.589 20.9863L190.615 18.7682L193.701 16.6315L196.846 14.5875L200.048 12.6469L203.305 10.8196L206.615 9.1146L209.974 7.53995L213.38 6.10252L216.826 4.80803L220.31 3.66126L223.827 2.66616L227.371 1.82593L230.938 1.1429L234.522 0.618576L238.119 0.253603L241.722 0.0477685L245.328 0L248.93 0.108381L252.524 0.370164L256.106 0.781797L259.67 1.33895L263.213 2.03654L266.73 2.86882L270.219 3.82934L273.676 4.91109L277.099 6.1065L280.486 7.40753L283.835 8.80571L287.144 10.2922L290.414 11.858L293.644 13.4937L296.835 15.1899L299.988 16.9372L303.104 18.726L306.185 20.5471L309.235 22.3912L312.255 24.2494L315.249 26.113L318.22 27.9737L321.174 29.8238L324.115 31.6559L327.046 33.4633L329.973 35.2398L332.902 36.9799L335.836 38.6789L338.782 40.3326L341.744 41.9378L344.728 43.4919L347.738 44.9932L350.779 46.4407L353.856 47.8344L356.972 49.1749L360.133 50.4637L363.34 51.703L366.597 52.8957L369.906 54.0457L373.269 55.1571L376.688 56.235L380.162 57.285L383.693 58.3132L387.278 59.3263L390.916 60.3317L394.606 61.3369L398.344 62.35L402.125 63.3791L405.946 64.4326L409.801 65.5191L413.684 66.6467L417.588 67.8239L421.507 69.0587L425.432 70.359L429.356 71.7322L433.269 73.1854L437.164 74.7252L441.03 76.3577L444.858 78.0883L448.64 79.922L452.365 81.8629L456.025 83.9145L459.609 86.0795L463.11 88.36L466.517 90.7571L469.823 93.2713L473.021 95.9024L476.102 98.6491L479.06 101.51L481.889 104.483L484.582 107.565L487.133 110.753L489.538 114.044L491.791 117.433L493.888 120.917L495.824 124.49L497.598 128.148L499.205 131.885L500.644 135.695L501.913 139.573L503.01 143.513L503.935 147.508L504.688 151.552L505.27 155.639L505.681 159.761L505.924 163.913L506 168.089L505.912 172.28L505.664 176.482L505.259 180.688L504.701 184.891L503.995 189.086L503.145 193.267L502.159 197.429L501.04 201.565L499.795 205.672L498.432 209.744L496.955 213.778L495.372 217.768L493.691 221.712L491.917 225.605L490.06 229.446L488.124 233.23L486.119 236.957L484.052 240.624L481.929 244.229L479.758 247.772L477.546 251.251L475.3 254.666L473.027 258.017L470.733 261.304Z" fill="#CFC69F"/>
</svg>
