<svg width="50" height="50" viewBox="0 0 50 50" fill="none" xmlns="http://www.w3.org/2000/svg">
<circle cx="25" cy="25" r="24" fill="#CFC69F" stroke="#243528" stroke-width="2"/>
<path d="M20.0315 22.75C20.0315 20.282 22.0322 18.2812 24.5002 18.2812C26.9683 18.2812 28.969 20.282 28.969 22.75C28.969 25.218 26.9683 27.2188 24.5002 27.2188C22.0322 27.2188 20.0315 25.218 20.0315 22.75Z" fill="black"/>
<path fill-rule="evenodd" clip-rule="evenodd" d="M13.1889 21.2064C13.6614 15.4741 18.4516 11.0625 24.2033 11.0625H24.7972C30.549 11.0625 35.3392 15.4741 35.8117 21.2064C36.0661 24.2927 35.1127 27.3573 33.1525 29.7547L26.562 37.8146C25.4964 39.1178 23.5041 39.1178 22.4385 37.8147L15.8481 29.7547C13.8878 27.3573 12.9345 24.2927 13.1889 21.2064ZM24.5002 16.2188C20.8931 16.2188 17.969 19.1429 17.969 22.75C17.969 26.3571 20.8931 29.2812 24.5002 29.2812C28.1074 29.2812 31.0315 26.3571 31.0315 22.75C31.0315 19.1429 28.1074 16.2188 24.5002 16.2188Z" fill="black"/>
</svg>
