<svg width="50" height="50" viewBox="0 0 50 50" fill="none" xmlns="http://www.w3.org/2000/svg">
<circle cx="25" cy="25" r="24" fill="#CFC69F" stroke="#243528" stroke-width="2"/>
<path fill-rule="evenodd" clip-rule="evenodd" d="M17.875 22C17.875 18.065 21.065 14.875 25 14.875C28.9351 14.875 32.125 18.065 32.125 22C32.125 25.935 28.9351 29.125 25 29.125C21.065 29.125 17.875 25.935 17.875 22ZM25 17.125C22.3076 17.125 20.125 19.3076 20.125 22C20.125 24.6924 22.3076 26.875 25 26.875C27.6924 26.875 29.875 24.6924 29.875 22C29.875 19.3076 27.6924 17.125 25 17.125Z" fill="#243528"/>
<path fill-rule="evenodd" clip-rule="evenodd" d="M12.2866 20.2853C12.8181 13.8374 18.2063 8.875 24.6761 8.875H25.324C31.7938 8.875 37.182 13.8374 37.7135 20.2853C37.999 23.749 36.9291 27.1883 34.7291 29.8789L27.5395 38.6715C26.227 40.2767 23.7731 40.2767 22.4606 38.6715L15.271 29.8789C13.071 27.1883 12.0011 23.749 12.2866 20.2853ZM24.6761 11.125C19.3773 11.125 14.9643 15.1892 14.529 20.4701C14.2914 23.3529 15.1818 26.2154 17.0128 28.4546L24.2024 37.2473C24.6147 37.7515 25.3854 37.7515 25.7977 37.2473L32.9873 28.4546C34.8183 26.2153 35.7087 23.3529 35.4711 20.4701C35.0358 15.1892 30.6228 11.125 25.324 11.125H24.6761Z" fill="#243528"/>
</svg>
