<svg width="26" height="32" viewBox="0 0 26 32" fill="none" xmlns="http://www.w3.org/2000/svg">
<path fill-rule="evenodd" clip-rule="evenodd" d="M5.87504 14C5.87504 10.065 9.06501 6.875 13 6.875C16.9351 6.875 20.125 10.065 20.125 14C20.125 17.935 16.9351 21.125 13 21.125C9.06501 21.125 5.87504 17.935 5.87504 14ZM13 9.125C10.3076 9.125 8.12504 11.3076 8.12504 14C8.12504 16.6924 10.3076 18.875 13 18.875C15.6924 18.875 17.875 16.6924 17.875 14C17.875 11.3076 15.6924 9.125 13 9.125Z" fill="#243528"/>
<path fill-rule="evenodd" clip-rule="evenodd" d="M0.286582 12.2853C0.818073 5.83736 6.2063 0.875 12.6761 0.875H13.324C19.7938 0.875 25.182 5.83736 25.7135 12.2853C25.999 15.749 24.9291 19.1883 22.7291 21.8789L15.5395 30.6715C14.227 32.2767 11.7731 32.2767 10.4606 30.6715L3.27098 21.8789C1.071 19.1883 0.00107399 15.749 0.286582 12.2853ZM12.6761 3.125C7.37728 3.125 2.96427 7.18922 2.52898 12.4701C2.29136 15.3529 3.18182 18.2154 5.01282 20.4546L12.2024 29.2473C12.6147 29.7515 13.3854 29.7515 13.7977 29.2473L20.9873 20.4546C22.8183 18.2153 23.7087 15.3529 23.4711 12.4701C23.0358 7.18922 18.6228 3.125 13.324 3.125H12.6761Z" fill="#243528"/>
</svg>
