<svg width="1440" height="1656" viewBox="0 0 1440 1656" fill="none" xmlns="http://www.w3.org/2000/svg">
<g clip-path="url(#clip0_170_84)">
<rect width="1440" height="1656" fill="#B7DB99"/>
<path fill-rule="evenodd" clip-rule="evenodd" d="M316.598 378.241V378.241L317.84 380.553L319.127 382.874L320.457 385.206L321.833 387.551L323.253 389.91L324.718 392.286L326.228 394.681L327.784 397.096L329.385 399.533L331.031 401.994L332.724 404.482L334.462 406.997L336.246 409.542L338.076 412.119L339.951 414.729L341.87 417.376L343.833 420.06L345.838 422.784L347.884 425.549L349.968 428.358L352.088 431.212L354.241 434.112L356.421 437.061L358.624 440.059L360.844 443.108L363.074 446.208L365.311 449.36L367.548 452.564L369.779 455.821L371.998 459.13L374.197 462.491L376.368 465.903L378.501 469.365L380.586 472.874L382.613 476.428L384.57 480.025L386.446 483.66L388.229 487.33L389.905 491.03L391.463 494.755L392.889 498.499L394.171 502.255L395.297 506.016L396.255 509.777L397.033 513.527L397.62 517.26L398.006 520.967L398.181 524.639L398.137 528.267L397.866 531.842L397.362 535.355L396.619 538.797L395.633 542.158L394.401 545.43L392.922 548.605L391.195 551.673L389.221 554.627L387.003 557.46L384.545 560.165L381.851 562.736L378.928 565.167L375.785 567.454L372.429 569.592L368.872 571.58L365.124 573.415L361.199 575.096L357.108 576.623L352.867 577.996L348.49 579.219L343.994 580.294L339.394 581.226L334.707 582.019L329.95 582.68L325.141 583.216L320.297 583.635L315.435 583.947L310.572 584.161L305.727 584.288L300.914 584.339L296.152 584.327L291.454 584.265L286.837 584.166L282.315 584.043L277.901 583.911L273.608 583.783L269.446 583.675L265.428 583.601L261.561 583.575L257.855 583.611L254.316 583.724L250.95 583.926L247.761 584.232L244.753 584.653L241.927 585.201L239.284 585.889L236.824 586.725L234.545 587.72L232.443 588.881L230.514 590.218L228.754 591.734L227.156 593.437L225.712 595.33L224.415 597.416L223.255 599.697L222.222 602.173L221.307 604.843L220.498 607.705L219.784 610.757L219.153 613.994L218.593 617.41L218.091 620.999L217.636 624.754L217.214 628.667L216.814 632.728L216.424 636.926L216.032 641.253L215.627 645.696L215.197 650.244L214.733 654.886L214.224 659.608L213.662 664.4L213.038 669.248L212.344 674.141L211.574 679.069L210.721 684.018L209.78 688.98L208.746 693.94L207.614 698.888L206.378 703.81L205.035 708.694L203.58 713.524L202.01 718.286L200.322 722.966L198.513 727.548L196.581 732.018L194.525 736.361L192.345 740.562L190.041 744.607L187.613 748.484L185.064 752.179L182.396 755.681L179.611 758.978L176.715 762.061L173.711 764.92L170.603 767.548L167.399 769.937L164.103 772.083L160.722 773.979L157.262 775.623L153.732 777.013L150.138 778.146L146.487 779.024L142.788 779.647L139.048 780.017L135.274 780.138L131.476 780.013L127.659 779.648L123.832 779.049L120.002 778.223L116.176 777.178L112.361 775.923L108.563 774.466L104.789 772.817L101.043 770.988L97.3323 768.99L93.6607 766.833L90.0329 764.529L86.4527 762.092L82.9238 759.533L79.449 756.866L76.0308 754.103L72.6711 751.257L69.3714 748.341L66.1325 745.368L62.9549 742.351L59.8385 739.303L56.7826 736.236L53.7863 733.163L50.8479 730.096L47.9655 727.046L45.1367 724.025L42.3587 721.044L39.6283 718.112L36.9419 715.24L34.2958 712.438L31.6857 709.713L29.1073 707.075L26.5559 704.53L24.0267 702.086L21.5147 699.748L19.0148 697.522L16.5219 695.413L14.0307 693.425L11.5359 691.56L9.03245 689.821L6.51521 688.21L3.97918 686.727L1.41955 685.373L-1.16828 684.145L-3.78866 683.044L-6.44567 682.065L-9.14304 681.207L-11.8842 680.464L-14.672 679.832L-17.5091 679.306L-20.3974 678.879L-23.3387 678.544L-26.3338 678.293L-29.3833 678.119L-32.4871 678.013L-35.6446 677.965L-38.8544 677.966L-42.1149 678.006L-45.4234 678.074L-48.7772 678.161L-52.1726 678.255L-55.6057 678.347L-59.0718 678.425L-62.5662 678.479L-66.0835 678.5L-69.6181 678.477L-73.1645 678.402L-76.7168 678.267L-80.2692 678.064L-83.8164 677.786L-87.3532 677.429L-90.8746 676.988L-94.3766 676.46L-97.8552 675.843L-101.307 675.135L-104.729 674.336L-108.116 673.444L-111.464 672.456L-114.769 671.371L-118.026 670.186L-121.227 668.897L-124.368 667.504L-127.443 666.003L-130.444 664.391L-133.366 662.666L-136.2 660.825L-138.94 658.867L-141.58 656.791L-144.111 654.594L-146.528 652.276L-148.822 649.837L-150.989 647.277L-153.021 644.596L-154.913 641.796L-156.66 638.879L-158.256 635.847L-159.698 632.704L-160.982 629.454L-162.105 626.1L-163.064 622.647L-163.859 619.102L-164.49 615.471L-164.955 611.759L-165.258 607.975L-165.399 604.124L-165.383 600.217L-165.212 596.259L-164.893 592.261L-164.43 588.23L-163.831 584.175L-163.104 580.105L-162.256 576.029L-161.298 571.955L-160.238 567.893L-159.088 563.85L-157.859 559.834L-156.563 555.854L-155.212 551.916L-153.819 548.029L-152.397 544.197L-150.959 540.428L-149.518 536.726L-148.089 533.097L-146.685 529.545L-145.318 526.073L-144.003 522.684L-142.753 519.38L-141.579 516.162L-140.493 513.032L-139.509 509.989L-138.635 507.034L-137.883 504.163L-137.262 501.376L-136.781 498.67L-136.447 496.042L-136.268 493.488L-136.25 491.004L-136.397 488.584L-136.713 486.225L-137.202 483.92L-137.866 481.663L-138.704 479.449L-139.718 477.271L-140.906 475.123L-142.266 472.997L-143.795 470.888L-145.489 468.789L-147.343 466.692L-149.351 464.592L-151.508 462.483L-153.806 460.357L-156.237 458.209L-158.792 456.033L-161.464 453.825L-164.243 451.578L-167.12 449.288L-170.083 446.952L-173.125 444.564L-176.233 442.121L-179.399 439.621L-182.611 437.06L-185.86 434.437L-189.136 431.748L-192.427 428.993L-195.725 426.171L-199.02 423.28L-202.301 420.321L-205.559 417.293L-208.786 414.197L-211.971 411.034L-215.106 407.804L-218.18 404.509L-221.186 401.15L-224.112 397.731L-226.95 394.253L-229.69 390.719L-232.324 387.134L-234.845 383.499L-237.247 379.818L-239.526 376.095L-241.678 372.333L-243.701 368.536L-245.594 364.707L-247.357 360.85L-248.988 356.966L-250.491 353.06L-251.866 349.135L-253.115 345.191L-254.242 341.233L-255.25 337.261L-256.142 333.278L-256.922 329.285L-257.596 325.284L-258.166 321.276L-258.637 317.262L-259.014 313.242L-259.3 309.218L-259.501 305.19L-259.618 301.157L-259.657 297.121L-259.621 293.082L-259.512 289.04L-259.333 284.996L-259.087 280.949L-258.774 276.9L-258.398 272.849L-257.957 268.798L-257.454 264.747L-256.887 260.697L-256.257 256.65L-255.563 252.606L-254.804 248.568L-253.977 244.537L-253.082 240.516L-252.115 236.508L-251.075 232.515L-249.959 228.541L-248.763 224.589L-247.485 220.664L-246.121 216.768L-244.668 212.907L-243.123 209.085L-241.482 205.308L-239.742 201.58L-237.9 197.906L-235.953 194.293L-233.898 190.745L-231.732 187.27L-229.454 183.871L-227.061 180.556L-224.552 177.331L-221.925 174.201L-219.18 171.171L-216.315 168.249L-213.331 165.438L-210.228 162.745L-207.007 160.175L-203.669 157.733L-200.216 155.423L-196.649 153.249L-192.972 151.217L-189.188 149.328L-185.299 147.588L-181.31 145.997L-177.224 144.56L-173.046 143.278L-168.781 142.152L-164.434 141.185L-160.01 140.376L-155.514 139.726L-150.953 139.235L-146.332 138.903L-141.657 138.729L-136.935 138.711L-132.17 138.848L-127.371 139.138L-122.541 139.579L-117.689 140.168L-112.82 140.903L-107.94 141.779L-103.055 142.793L-98.1712 143.942L-93.2942 145.221L-88.4297 146.626L-83.5834 148.153L-78.7609 149.796L-73.9675 151.549L-69.2087 153.407L-64.4897 155.363L-59.8158 157.41L-55.1923 159.542L-50.6245 161.748L-46.1171 164.021L-41.6746 166.352L-37.301 168.733L-33.0002 171.155L-28.7754 173.609L-24.6296 176.087L-20.5652 178.581L-16.5843 181.082L-12.6886 183.581L-8.87943 186.072L-5.15798 188.545L-1.52504 190.993L2.01893 193.406L5.47365 195.776L8.83925 198.095L12.1161 200.353L15.3048 202.543L18.4065 204.654L21.4224 206.679L24.3542 208.608L27.204 210.433L29.974 212.145L32.6671 213.735L35.2862 215.197L37.8348 216.521L40.3166 217.701L42.7358 218.73L45.0968 219.6L47.4044 220.307L49.6635 220.845L51.8796 221.209L54.0581 221.396L56.2049 221.401L58.3258 221.224L60.427 220.862L62.5148 220.314L64.5954 219.581L66.6751 218.665L68.7603 217.566L70.8572 216.288L72.972 214.834L75.1108 213.211L77.2795 211.422L79.4835 209.475L81.7285 207.377L84.0193 205.137L86.3608 202.764L88.7573 200.267L91.2127 197.656L93.7305 194.945L96.3136 192.143L98.9647 189.264L101.686 186.32L104.478 183.325L107.342 180.292L110.279 177.236L113.288 174.171L116.368 171.11L119.519 168.069L122.737 165.061L126.02 162.101L129.365 159.203L132.769 156.381L136.228 153.647L139.736 151.016L143.289 148.5L146.88 146.111L150.506 143.86L154.158 141.758L157.831 139.814L161.517 138.039L165.211 136.44L168.905 135.025L172.592 133.8L176.265 132.771L179.916 131.942L183.539 131.317L187.127 130.898L190.673 130.687L194.171 130.684L197.615 130.888L200.999 131.298L204.318 131.91L207.566 132.722L210.74 133.729L213.836 134.926L216.85 136.305L219.779 137.861L222.622 139.585L225.376 141.469L228.041 143.505L230.616 145.683L233.101 147.994L235.497 150.428L237.805 152.976L240.026 155.628L242.161 158.374L244.214 161.205L246.184 164.114L248.075 167.091L249.889 170.13L251.627 173.223L253.293 176.363L254.889 179.543L256.418 182.756L257.883 185.995L259.289 189.254L260.638 192.526L261.935 195.805L263.182 199.087L264.385 202.365L265.547 205.635L266.671 208.892L267.761 212.135L268.821 215.358L269.852 218.559L270.858 221.737L271.841 224.889L272.804 228.015L273.749 231.114L274.677 234.184L275.589 237.226L276.487 240.24L277.372 243.227L278.243 246.187L279.102 249.121L279.949 252.03L280.783 254.915L281.605 257.776L282.414 260.617L283.21 263.436L283.993 266.236L284.762 269.018L285.517 271.782L286.257 274.531L286.982 277.263L287.692 279.981L288.387 282.685L289.067 285.375L289.731 288.052L290.381 290.716L291.016 293.368L291.637 296.007L292.245 298.633L292.84 301.247L293.425 303.848L293.999 306.436L294.565 309.011L295.124 311.572L295.679 314.12L296.23 316.654L296.78 319.173L297.331 321.678L297.885 324.168L298.445 326.643L299.012 329.104L299.59 331.549L300.181 333.98L300.787 336.396L301.41 338.798L302.054 341.186L302.719 343.56L303.409 345.922L304.125 348.272L304.87 350.61L305.645 352.939L306.453 355.258L307.294 357.569L308.171 359.874L309.084 362.173L310.036 364.468L311.026 366.761L312.057 369.052L313.129 371.344L314.242 373.639L315.398 375.937L316.598 378.241" fill="#CFC69F"/>
<path fill-rule="evenodd" clip-rule="evenodd" d="M470.733 1302.3V1302.3L468.425 1305.53L466.109 1308.69L463.79 1311.79L461.474 1314.83L459.166 1317.81L456.871 1320.73L454.593 1323.6L452.337 1326.42L450.106 1329.18L447.901 1331.9L445.725 1334.57L443.578 1337.2L441.46 1339.78L439.371 1342.33L437.31 1344.83L435.276 1347.3L433.268 1349.74L431.282 1352.14L429.317 1354.51L427.371 1356.85L425.442 1359.15L423.527 1361.43L421.624 1363.68L419.73 1365.9L417.845 1368.09L415.967 1370.25L414.095 1372.39L412.227 1374.5L410.365 1376.58L408.508 1378.64L406.656 1380.67L404.813 1382.68L402.979 1384.67L401.157 1386.65L399.349 1388.61L397.557 1390.55L395.785 1392.49L394.033 1394.42L392.304 1396.34L390.6 1398.26L388.923 1400.19L387.275 1402.12L385.656 1404.06L384.069 1406.02L382.514 1407.99L380.992 1409.98L379.504 1411.99L378.051 1414.04L376.632 1416.11L375.247 1418.22L373.895 1420.37L372.577 1422.56L371.29 1424.79L370.034 1427.08L368.807 1429.41L367.606 1431.79L366.43 1434.24L365.276 1436.74L364.141 1439.3L363.022 1441.92L361.916 1444.6L360.819 1447.35L359.727 1450.16L358.636 1453.04L357.543 1455.97L356.443 1458.98L355.332 1462.04L354.204 1465.17L353.057 1468.35L351.885 1471.6L350.683 1474.89L349.447 1478.24L348.174 1481.64L346.857 1485.09L345.493 1488.57L344.079 1492.1L342.609 1495.65L341.08 1499.24L339.488 1502.85L337.83 1506.48L336.103 1510.13L334.304 1513.78L332.429 1517.44L330.477 1521.1L328.446 1524.75L326.334 1528.39L324.139 1532.01L321.861 1535.62L319.498 1539.2L317.051 1542.75L314.519 1546.26L311.902 1549.75L309.199 1553.19L306.412 1556.58L303.541 1559.94L300.587 1563.24L297.549 1566.48L294.43 1569.67L291.229 1572.8L287.949 1575.87L284.589 1578.87L281.152 1581.8L277.639 1584.65L274.052 1587.42L270.391 1590.12L266.66 1592.72L262.859 1595.23L258.991 1597.65L255.058 1599.96L251.063 1602.17L247.009 1604.26L242.898 1606.24L238.735 1608.09L234.522 1609.81L230.264 1611.41L225.963 1612.88L221.624 1614.21L217.251 1615.4L212.848 1616.46L208.42 1617.38L203.969 1618.15L199.499 1618.8L195.016 1619.3L190.522 1619.67L186.022 1619.9L181.518 1620L177.014 1619.97L172.513 1619.82L168.018 1619.54L163.531 1619.14L159.055 1618.62L154.592 1618L150.143 1617.27L145.711 1616.44L141.295 1615.51L136.898 1614.48L132.52 1613.37L128.161 1612.18L123.821 1610.91L119.5 1609.57L115.198 1608.16L110.915 1606.69L106.649 1605.16L102.4 1603.57L98.1665 1601.93L93.948 1600.24L89.7431 1598.51L85.5509 1596.73L81.3701 1594.92L77.1997 1593.06L73.0389 1591.17L68.8867 1589.25L64.7425 1587.28L60.6058 1585.29L56.4765 1583.25L52.3545 1581.18L48.2401 1579.08L44.134 1576.93L40.037 1574.75L35.9507 1572.52L31.877 1570.25L27.8185 1567.93L23.7785 1565.55L19.7609 1563.12L15.7701 1560.63L11.8114 1558.08L7.89032 1555.45L4.01311 1552.75L0.186459 1549.97L-3.58249 1547.11L-7.2862 1544.16L-10.9168 1541.12L-14.4663 1537.98L-17.9264 1534.74L-21.2887 1531.41L-24.5449 1527.97L-27.6866 1524.43L-30.7059 1520.78L-33.5949 1517.03L-36.3461 1513.17L-38.9526 1509.21L-41.4079 1505.15L-43.7063 1500.99L-45.8427 1496.74L-47.813 1492.4L-49.6136 1487.97L-51.2416 1483.47L-52.6949 1478.89L-53.9718 1474.24L-55.0716 1469.53L-55.9942 1464.77L-56.7403 1459.96L-57.3113 1455.1L-57.7094 1450.22L-57.9377 1445.31L-58 1440.37L-57.9009 1435.43L-57.6456 1430.48L-57.2404 1425.54L-56.6919 1420.61L-56.0078 1415.69L-55.196 1410.8L-54.2654 1405.93L-53.2253 1401.11L-52.0853 1396.32L-50.8559 1391.58L-49.5475 1386.89L-48.1711 1382.26L-46.7379 1377.68L-45.2592 1373.17L-43.7465 1368.72L-42.2114 1364.33L-40.6652 1360.02L-39.1192 1355.77L-37.5846 1351.58L-36.0722 1347.47L-34.5924 1343.42L-33.1552 1339.43L-31.7703 1335.5L-30.4465 1331.64L-29.1921 1327.82L-28.0147 1324.06L-26.9212 1320.35L-25.9175 1316.68L-25.0087 1313.04L-24.1993 1309.44L-23.4923 1305.86L-22.8901 1302.3L-22.3941 1298.76L-22.0045 1295.23L-21.7207 1291.7L-21.5409 1288.17L-21.4624 1284.64L-21.4814 1281.09L-21.5933 1277.52L-21.7922 1273.93L-22.0709 1270.31L-22.4208 1266.67L-22.8321 1262.99L-23.294 1259.27L-23.7946 1255.52L-24.3213 1251.73L-24.8608 1247.91L-25.399 1244.04L-25.9218 1240.15L-26.4144 1236.21L-26.8621 1232.25L-27.2505 1228.27L-27.5648 1224.26L-27.7911 1220.24L-27.9158 1216.22L-27.9258 1212.19L-27.8089 1208.17L-27.554 1204.16L-27.1507 1200.18L-26.5899 1196.23L-25.864 1192.32L-24.9664 1188.46L-23.8922 1184.66L-22.6381 1180.92L-21.2023 1177.27L-19.5841 1173.69L-17.7841 1170.2L-15.8037 1166.81L-13.6455 1163.52L-11.3129 1160.35L-8.81011 1157.28L-6.14256 1154.34L-3.31634 1151.52L-0.338368 1148.83L2.78365 1146.28L6.04134 1143.85L9.4257 1141.56L12.9272 1139.4L16.5357 1137.38L20.2409 1135.49L24.032 1133.73L27.898 1132.1L31.8277 1130.6L35.8099 1129.21L39.8335 1127.94L43.8872 1126.78L47.9603 1125.72L52.042 1124.75L56.1219 1123.87L60.1901 1123.07L64.2371 1122.33L68.2541 1121.66L72.2327 1121.03L76.1651 1120.44L80.0445 1119.88L83.8645 1119.34L87.6196 1118.8L91.3053 1118.27L94.9175 1117.71L98.4534 1117.14L101.911 1116.54L105.288 1115.89L108.585 1115.19L111.801 1114.43L114.939 1113.61L118 1112.71L120.985 1111.73L123.9 1110.67L126.747 1109.51L129.532 1108.26L132.258 1106.92L134.933 1105.47L137.561 1103.93L140.15 1102.29L142.705 1100.55L145.234 1098.71L147.744 1096.78L150.242 1094.76L152.735 1092.66L155.23 1090.49L157.735 1088.24L160.256 1085.93L162.801 1083.58L165.374 1081.18L167.983 1078.76L170.631 1076.32L173.325 1073.87L176.068 1071.43L178.863 1069.01L181.714 1066.62L184.622 1064.27L187.589 1061.99L190.615 1059.77L193.701 1057.63L196.846 1055.59L200.048 1053.65L203.305 1051.82L206.615 1050.11L209.974 1048.54L213.38 1047.1L216.826 1045.81L220.31 1044.66L223.827 1043.67L227.371 1042.83L230.938 1042.14L234.522 1041.62L238.119 1041.25L241.722 1041.05L245.328 1041L248.93 1041.11L252.524 1041.37L256.106 1041.78L259.67 1042.34L263.213 1043.04L266.73 1043.87L270.219 1044.83L273.676 1045.91L277.099 1047.11L280.486 1048.41L283.835 1049.81L287.144 1051.29L290.414 1052.86L293.644 1054.49L296.835 1056.19L299.988 1057.94L303.104 1059.73L306.185 1061.55L309.235 1063.39L312.255 1065.25L315.249 1067.11L318.22 1068.97L321.174 1070.82L324.115 1072.66L327.046 1074.46L329.973 1076.24L332.902 1077.98L335.836 1079.68L338.782 1081.33L341.744 1082.94L344.728 1084.49L347.738 1085.99L350.779 1087.44L353.856 1088.83L356.972 1090.17L360.133 1091.46L363.34 1092.7L366.597 1093.9L369.906 1095.05L373.269 1096.16L376.688 1097.23L380.162 1098.28L383.692 1099.31L387.278 1100.33L390.916 1101.33L394.606 1102.34L398.344 1103.35L402.125 1104.38L405.946 1105.43L409.801 1106.52L413.684 1107.65L417.588 1108.82L421.507 1110.06L425.432 1111.36L429.356 1112.73L433.269 1114.19L437.164 1115.73L441.03 1117.36L444.858 1119.09L448.64 1120.92L452.365 1122.86L456.025 1124.91L459.609 1127.08L463.11 1129.36L466.517 1131.76L469.823 1134.27L473.021 1136.9L476.102 1139.65L479.06 1142.51L481.889 1145.48L484.582 1148.56L487.133 1151.75L489.538 1155.04L491.791 1158.43L493.888 1161.92L495.824 1165.49L497.598 1169.15L499.205 1172.88L500.644 1176.7L501.913 1180.57L503.01 1184.51L503.935 1188.51L504.688 1192.55L505.27 1196.64L505.681 1200.76L505.924 1204.91L506 1209.09L505.912 1213.28L505.664 1217.48L505.259 1221.69L504.701 1225.89L503.995 1230.09L503.145 1234.27L502.159 1238.43L501.04 1242.57L499.795 1246.67L498.432 1250.74L496.955 1254.78L495.372 1258.77L493.691 1262.71L491.917 1266.61L490.06 1270.45L488.124 1274.23L486.119 1277.96L484.052 1281.62L481.929 1285.23L479.758 1288.77L477.546 1292.25L475.3 1295.67L473.027 1299.02L470.733 1302.3" fill="#CFC69F"/>
<path fill-rule="evenodd" clip-rule="evenodd" d="M1471.01 837.508V837.508L1470.14 840.373L1469.42 843.219L1468.85 846.053L1468.42 848.883L1468.14 851.716L1468 854.558L1467.99 857.416L1468.11 860.296L1468.36 863.205L1468.72 866.147L1469.18 869.127L1469.74 872.148L1470.37 875.215L1471.07 878.328L1471.82 881.489L1472.61 884.699L1473.42 887.956L1474.23 891.259L1475.02 894.605L1475.79 897.991L1476.51 901.411L1477.17 904.861L1477.75 908.336L1478.24 911.827L1478.63 915.328L1478.89 918.831L1479.03 922.329L1479.04 925.814L1478.89 929.276L1478.6 932.709L1478.15 936.105L1477.55 939.456L1476.78 942.755L1475.85 945.995L1474.76 949.17L1473.5 952.273L1472.09 955.298L1470.53 958.24L1468.81 961.095L1466.94 963.857L1464.94 966.525L1462.8 969.095L1460.53 971.566L1458.14 973.935L1455.65 976.205L1453.05 978.373L1450.36 980.443L1447.58 982.417L1444.74 984.296L1441.83 986.086L1438.87 987.791L1435.87 989.415L1432.83 990.966L1429.78 992.449L1426.7 993.872L1423.63 995.242L1420.56 996.568L1417.5 997.857L1414.46 999.12L1411.44 1000.36L1408.46 1001.6L1405.51 1002.83L1402.61 1004.08L1399.75 1005.34L1396.95 1006.63L1394.19 1007.95L1391.48 1009.32L1388.83 1010.73L1386.24 1012.21L1383.69 1013.75L1381.19 1015.37L1378.75 1017.05L1376.35 1018.82L1373.98 1020.68L1371.66 1022.62L1369.37 1024.65L1367.1 1026.77L1364.86 1028.98L1362.63 1031.28L1360.41 1033.67L1358.2 1036.14L1355.98 1038.69L1353.74 1041.33L1351.5 1044.03L1349.23 1046.8L1346.93 1049.62L1344.59 1052.5L1342.21 1055.41L1339.78 1058.36L1337.3 1061.32L1334.76 1064.29L1332.16 1067.26L1329.49 1070.21L1326.75 1073.13L1323.94 1076L1321.06 1078.83L1318.1 1081.58L1315.07 1084.25L1311.96 1086.84L1308.77 1089.32L1305.52 1091.68L1302.19 1093.92L1298.8 1096.02L1295.35 1097.98L1291.84 1099.78L1288.27 1101.42L1284.65 1102.89L1280.99 1104.19L1277.29 1105.3L1273.56 1106.23L1269.8 1106.96L1266.03 1107.51L1262.24 1107.85L1258.44 1108L1254.65 1107.95L1250.86 1107.7L1247.09 1107.25L1243.35 1106.61L1239.63 1105.77L1235.94 1104.75L1232.29 1103.54L1228.7 1102.14L1225.15 1100.57L1221.66 1098.83L1218.24 1096.93L1214.88 1094.86L1211.59 1092.65L1208.38 1090.3L1205.24 1087.81L1202.19 1085.2L1199.22 1082.46L1196.33 1079.62L1193.53 1076.69L1190.82 1073.65L1188.2 1070.54L1185.66 1067.36L1183.22 1064.11L1180.86 1060.8L1178.59 1057.45L1176.4 1054.05L1174.3 1050.63L1172.28 1047.18L1170.34 1043.71L1168.48 1040.24L1166.69 1036.76L1164.97 1033.28L1163.32 1029.82L1161.73 1026.37L1160.21 1022.94L1158.74 1019.53L1157.33 1016.15L1155.97 1012.8L1154.66 1009.49L1153.4 1006.21L1152.17 1002.97L1150.98 999.781L1149.83 996.632L1148.71 993.528L1147.61 990.471L1146.54 987.461L1145.49 984.501L1144.46 981.592L1143.44 978.735L1142.43 975.931L1141.42 973.182L1140.41 970.488L1139.39 967.852L1138.36 965.274L1137.32 962.755L1136.26 960.296L1135.16 957.896L1134.04 955.556L1132.87 953.277L1131.67 951.057L1130.41 948.897L1129.1 946.795L1127.72 944.751L1126.28 942.762L1124.77 940.829L1123.18 938.947L1121.5 937.117L1119.74 935.333L1117.89 933.593L1115.94 931.893L1113.89 930.228L1111.74 928.593L1109.49 926.983L1107.14 925.391L1104.7 923.812L1102.15 922.239L1099.51 920.664L1096.77 919.083L1093.95 917.486L1091.05 915.868L1088.08 914.221L1085.03 912.539L1081.93 910.815L1078.78 909.042L1075.59 907.215L1072.37 905.327L1069.13 903.374L1065.89 901.35L1062.65 899.252L1059.43 897.075L1056.25 894.817L1053.11 892.475L1050.03 890.048L1047.03 887.534L1044.11 884.933L1041.3 882.246L1038.6 879.474L1036.03 876.619L1033.59 873.683L1031.31 870.671L1029.2 867.586L1027.26 864.432L1025.5 861.217L1023.94 857.944L1022.58 854.621L1021.43 851.255L1020.5 847.853L1019.79 844.422L1019.3 840.971L1019.04 837.508L1019 834.04L1019.19 830.576L1019.61 827.125L1020.25 823.694L1021.12 820.291L1022.19 816.923L1023.48 813.599L1024.96 810.324L1026.64 807.104L1028.5 803.947L1030.53 800.855L1032.72 797.834L1035.05 794.888L1037.52 792.018L1040.11 789.227L1042.8 786.515L1045.58 783.884L1048.43 781.331L1051.34 778.856L1054.29 776.456L1057.26 774.127L1060.25 771.866L1063.23 769.667L1066.19 767.525L1069.12 765.434L1072.01 763.388L1074.85 761.379L1077.62 759.402L1080.31 757.448L1082.93 755.51L1085.46 753.583L1087.91 751.658L1090.25 749.73L1092.51 747.791L1094.66 745.836L1096.72 743.858L1098.68 741.85L1100.54 739.809L1102.31 737.728L1103.98 735.603L1105.57 733.431L1107.07 731.208L1108.49 728.931L1109.84 726.598L1111.13 724.209L1112.36 721.763L1113.53 719.26L1114.67 716.702L1115.77 714.091L1116.84 711.428L1117.9 708.719L1118.95 705.967L1120.01 703.178L1121.08 700.358L1122.17 697.512L1123.29 694.649L1124.44 691.776L1125.65 688.902L1126.91 686.035L1128.23 683.185L1129.62 680.361L1131.08 677.572L1132.63 674.829L1134.26 672.142L1135.98 669.521L1137.79 666.974L1139.7 664.513L1141.7 662.146L1143.8 659.882L1146 657.729L1148.3 655.696L1150.68 653.79L1153.16 652.017L1155.73 650.382L1158.39 648.892L1161.13 647.549L1163.94 646.357L1166.82 645.318L1169.77 644.432L1172.77 643.701L1175.83 643.122L1178.92 642.694L1182.06 642.413L1185.22 642.275L1188.41 642.275L1191.61 642.405L1194.82 642.658L1198.03 643.023L1201.23 643.492L1204.42 644.053L1207.58 644.694L1210.73 645.403L1213.84 646.167L1216.92 646.973L1219.96 647.806L1222.96 648.655L1225.91 649.505L1228.83 650.343L1231.7 651.157L1234.52 651.934L1237.3 652.663L1240.05 653.332L1242.75 653.934L1245.42 654.458L1248.05 654.897L1250.66 655.245L1253.25 655.497L1255.82 655.647L1258.38 655.691L1260.93 655.626L1263.47 655.449L1266.03 655.157L1268.59 654.751L1271.16 654.23L1273.76 653.593L1276.39 652.843L1279.05 651.982L1281.74 651.012L1284.48 649.937L1287.27 648.761L1290.12 647.489L1293.02 646.128L1295.99 644.683L1299.02 643.161L1302.12 641.569L1305.3 639.916L1308.55 638.21L1311.87 636.459L1315.28 634.673L1318.77 632.86L1322.34 631.031L1325.99 629.195L1329.72 627.362L1333.53 625.541L1337.42 623.743L1341.38 621.977L1345.42 620.253L1349.52 618.58L1353.7 616.967L1357.94 615.425L1362.24 613.96L1366.59 612.581L1370.99 611.297L1375.44 610.114L1379.93 609.039L1384.45 608.079L1389 607.24L1393.58 606.527L1398.17 605.945L1402.77 605.498L1407.38 605.189L1411.98 605.023L1416.58 605L1421.17 605.123L1425.74 605.394L1430.28 605.813L1434.8 606.38L1439.28 607.096L1443.73 607.959L1448.13 608.97L1452.48 610.128L1456.77 611.433L1461 612.887L1465.16 614.487L1469.25 616.235L1473.26 618.13L1477.17 620.172L1480.99 622.36L1484.71 624.693L1488.32 627.17L1491.81 629.79L1495.18 632.551L1498.42 635.45L1501.52 638.486L1504.47 641.656L1507.27 644.958L1509.92 648.387L1512.39 651.942L1514.7 655.618L1516.82 659.412L1518.75 663.32L1520.49 667.336L1522.03 671.455L1523.37 675.671L1524.5 679.976L1525.43 684.364L1526.14 688.826L1526.63 693.354L1526.92 697.939L1527 702.572L1526.87 707.245L1526.54 711.946L1526.01 716.667L1525.29 721.398L1524.38 726.13L1523.3 730.854L1522.04 735.559L1520.63 740.238L1519.07 744.882L1517.38 749.482L1515.56 754.032L1513.63 758.524L1511.6 762.951L1509.49 767.309L1507.31 771.591L1505.07 775.794L1502.79 779.914L1500.49 783.948L1498.18 787.894L1495.87 791.751L1493.57 795.519L1491.32 799.197L1489.1 802.788L1486.95 806.293L1484.87 809.714L1482.87 813.055L1480.96 816.321L1479.16 819.515L1477.48 822.643L1475.91 825.711L1474.48 828.724L1473.18 831.691L1472.02 834.616L1471.01 837.508" fill="#CFC69F"/>
</g>
<defs>
<clipPath id="clip0_170_84">
<rect width="1440" height="1656" fill="white"/>
</clipPath>
</defs>
</svg>
